# xmcd
#
# Track frame offsets: 
#        150
#        14227
#        33669
#        53780
#        72620
#        92782
#
# Disc length: 1530 seconds
#
# Revision: 0
# Processed by: cddbd v1.5.2PL0 Copyright (c) Steve Scherf et al.
# Submitted via: ExactAudioCopyFreeDBPlugin 1.0
#
DISCID=5705f806
DTITLE=Bart Shea Band - The Bart Shea Band
DYEAR=2007
DGENRE=Blues
TTITLE0=T-Bone Shuffle
TTITLE1=She Caught The Katy
TTITLE2=Teardrop
TTITLE3=Night Life
TTITLE4=Unchain My Heart
TTITLE5=Cold Shot
EXTD=
EXTT0=
EXTT1=
EXTT2=
EXTT3=
EXTT4=
EXTT5=
PLAYORDER=
